<mxfile host="app.diagrams.net" modified="2023-08-07T04:54:28.692Z" agent="Mozilla/5.0 (Macintosh; Intel Mac OS X 10_15_7) AppleWebKit/537.36 (KHTML, like Gecko) Chrome/115.0.0.0 Safari/537.36" etag="_i6UVqBfwSziugTW21Ih" version="21.6.6" type="github">
  <diagram name="Page-1" id="IUE7Awmc_rm_cMhnYISC">
    <mxGraphModel dx="1406" dy="2540" grid="0" gridSize="10" guides="1" tooltips="1" connect="1" arrows="1" fold="1" page="1" pageScale="1" pageWidth="1920" pageHeight="1920" math="0" shadow="0">
      <root>
        <mxCell id="0" />
        <mxCell id="1" parent="0" />
        <mxCell id="rc2-wnnBQLkUg-n85xRE-1" value="Firebase Auth User" style="rounded=0;whiteSpace=wrap;html=1;" vertex="1" parent="1">
          <mxGeometry x="215" y="316" width="120" height="60" as="geometry" />
        </mxCell>
        <mxCell id="rc2-wnnBQLkUg-n85xRE-2" value="HTTP request" style="triangle;whiteSpace=wrap;html=1;fillColor=#e1d5e7;strokeColor=#9673a6;" vertex="1" parent="1">
          <mxGeometry x="76" y="97" width="121" height="118" as="geometry" />
        </mxCell>
        <mxCell id="rc2-wnnBQLkUg-n85xRE-8" style="edgeStyle=orthogonalEdgeStyle;rounded=0;orthogonalLoop=1;jettySize=auto;html=1;" edge="1" parent="1" source="rc2-wnnBQLkUg-n85xRE-3" target="rc2-wnnBQLkUg-n85xRE-1">
          <mxGeometry relative="1" as="geometry" />
        </mxCell>
        <mxCell id="rc2-wnnBQLkUg-n85xRE-3" value="Authentication Middleware" style="ellipse;whiteSpace=wrap;html=1;strokeColor=#66B3FF;" vertex="1" parent="1">
          <mxGeometry x="213" y="114" width="120" height="80" as="geometry" />
        </mxCell>
        <mxCell id="rc2-wnnBQLkUg-n85xRE-4" value="/app&lt;br&gt;Does user have access to this route?" style="text;html=1;align=left;verticalAlign=middle;whiteSpace=wrap;rounded=0;fillColor=default;" vertex="1" parent="1">
          <mxGeometry x="92" y="230" width="232" height="30" as="geometry" />
        </mxCell>
        <mxCell id="rc2-wnnBQLkUg-n85xRE-9" value="VD User" style="rounded=0;whiteSpace=wrap;html=1;" vertex="1" parent="1">
          <mxGeometry x="405" y="316" width="120" height="60" as="geometry" />
        </mxCell>
        <mxCell id="rc2-wnnBQLkUg-n85xRE-19" value="" style="endArrow=classic;html=1;rounded=0;" edge="1" parent="1">
          <mxGeometry width="50" height="50" relative="1" as="geometry">
            <mxPoint x="335" y="346" as="sourcePoint" />
            <mxPoint x="406" y="346" as="targetPoint" />
          </mxGeometry>
        </mxCell>
        <mxCell id="rc2-wnnBQLkUg-n85xRE-20" value="Is there VD user in the cookie session cookie?&lt;br&gt;&lt;br&gt;&lt;span style=&quot;background-color: rgb(145, 222, 255);&quot;&gt;&amp;lt;- Onboarding Sequence -&amp;gt;&lt;br&gt;&lt;/span&gt;&lt;span style=&quot;background-color: rgb(207, 255, 213);&quot;&gt;Create User&lt;/span&gt;&lt;br&gt;&lt;br&gt;&lt;br&gt;What&#39;s your name, major, minor etc?&lt;br&gt;&lt;br&gt;store id and name in session cookie" style="text;html=1;align=left;verticalAlign=middle;whiteSpace=wrap;rounded=0;fillColor=default;" vertex="1" parent="1">
          <mxGeometry x="179" y="457" width="162" height="30" as="geometry" />
        </mxCell>
        <mxCell id="rc2-wnnBQLkUg-n85xRE-23" value="app" style="swimlane;whiteSpace=wrap;html=1;" vertex="1" parent="1">
          <mxGeometry x="423" y="470" width="200" height="200" as="geometry" />
        </mxCell>
        <mxCell id="rc2-wnnBQLkUg-n85xRE-25" value="&lt;b&gt;1. &lt;/b&gt;Hello &quot;user.name&quot; is logged in" style="text;html=1;strokeColor=none;fillColor=none;align=center;verticalAlign=middle;whiteSpace=wrap;rounded=0;" vertex="1" parent="rc2-wnnBQLkUg-n85xRE-23">
          <mxGeometry x="18" y="53" width="137" height="30" as="geometry" />
        </mxCell>
        <mxCell id="rc2-wnnBQLkUg-n85xRE-35" value="&lt;b&gt;2. &lt;/b&gt;Render user.flows[1]" style="text;html=1;strokeColor=none;fillColor=none;align=left;verticalAlign=middle;whiteSpace=wrap;rounded=0;" vertex="1" parent="rc2-wnnBQLkUg-n85xRE-23">
          <mxGeometry x="20" y="89" width="154.5" height="30" as="geometry" />
        </mxCell>
        <mxCell id="rc2-wnnBQLkUg-n85xRE-36" value="&lt;b&gt;3. &lt;/b&gt;Clicking a tab&amp;nbsp;clears and loads appropriate user.flows[n]" style="text;html=1;strokeColor=none;fillColor=none;align=left;verticalAlign=middle;whiteSpace=wrap;rounded=0;" vertex="1" parent="rc2-wnnBQLkUg-n85xRE-23">
          <mxGeometry x="23" y="141" width="137.5" height="30" as="geometry" />
        </mxCell>
        <mxCell id="rc2-wnnBQLkUg-n85xRE-26" style="edgeStyle=orthogonalEdgeStyle;rounded=0;orthogonalLoop=1;jettySize=auto;html=1;" edge="1" parent="1" source="rc2-wnnBQLkUg-n85xRE-20" target="rc2-wnnBQLkUg-n85xRE-20">
          <mxGeometry relative="1" as="geometry" />
        </mxCell>
        <mxCell id="rc2-wnnBQLkUg-n85xRE-27" style="edgeStyle=orthogonalEdgeStyle;rounded=0;orthogonalLoop=1;jettySize=auto;html=1;elbow=vertical;" edge="1" parent="1" source="rc2-wnnBQLkUg-n85xRE-20" target="rc2-wnnBQLkUg-n85xRE-20">
          <mxGeometry relative="1" as="geometry" />
        </mxCell>
        <mxCell id="rc2-wnnBQLkUg-n85xRE-29" value="" style="group" vertex="1" connectable="0" parent="1">
          <mxGeometry x="679" y="273" width="583" height="184" as="geometry" />
        </mxCell>
        <mxCell id="rc2-wnnBQLkUg-n85xRE-31" value="" style="rounded=1;whiteSpace=wrap;html=1;fillColor=#d5e8d4;strokeColor=#82b366;" vertex="1" parent="rc2-wnnBQLkUg-n85xRE-29">
          <mxGeometry x="-30" y="-20" width="282" height="204" as="geometry" />
        </mxCell>
        <mxCell id="rc2-wnnBQLkUg-n85xRE-12" value="" style="shape=cylinder3;whiteSpace=wrap;html=1;boundedLbl=1;backgroundOutline=1;size=15;" vertex="1" parent="rc2-wnnBQLkUg-n85xRE-29">
          <mxGeometry y="8" width="60" height="80" as="geometry" />
        </mxCell>
        <mxCell id="rc2-wnnBQLkUg-n85xRE-13" value="" style="shape=image;verticalLabelPosition=bottom;labelBackgroundColor=default;verticalAlign=top;aspect=fixed;imageAspect=0;image=data:image/png,iVBORw0KGgoAAAANSUhEUgAAARwAAACxCAMAAAAh3/JWAAABEVBMVEX////BvbpBQEW+urc+PUJAnDlCnjk/mjpOsD9BoDo+lzlUtUFEpTozMjhEqjxDojo5OD4tLDFZuELx8fH5+fnp5uXh4eE+lDnt7e0pKC7Oy8gxLzbU1NRXV1vl4t+qqquZmZqHh4jAwMGzs7ShoaJISEr6/vnKx8RxcHOurq9eXWE/pzNGrzHW09CLioxoZ2t8fH7Kyc3t+OuW0oms16hUuTeUyo95xmrM5shuwV7Z7thSrEjF5cBCrylotmCLyIkxoCRCrDVvtmlVtEt7wXQ0myu02LHO6MuYx5WNwolht10fHiMfHiYLCBV9tnmqz6dcplZopmCFsXmgx47K1bgpjife7N0AAAjr59cUiAr08+ea6s3VAAALmUlEQVR4nO2bDXuTShbHKUGbtpkIhVAIpCEJpGlq81K17vW1vbW6q95V79q9Xb//B9k5TGBeIK26Kun2/O/zeCUMw8yP8zJzQE1DoVAoFAqFQqFQKBQKhUKhUCgUCoVCoVAoFAqFQqFQKBQKhUKhUCgUCoVCoVAoFAqFQlWuo6oHsMp6MKx6BKur4fbDqoewunrw6ABNp1zDB4+2D46rHsVqavj40fZ24+RvVY9jFTX8jbLZbjYPnlQ9ktUTY7PdaCCdoh7fBzbbzUaz2fh31YNZMR0/31rAaTQOnuJaUNSz51sMTgN08AITOtfR/a0tbjmNxsnLqke0Qnq8JcNpnLyuekgro9dgOIzOAk7jAMMO0/BsqwjnRdWjWhEd3y/CaZw8q3pYK6GjrUwinEYDMxbV8akAh7M5weoFGE69Xlct5x4ITUd7eD+Hs8XdirI5R9PRfqtLcDbuZWo8vfWm8wQMh/uVAOfe+a1PWMendZGOCKfxe9WDq1pn9aVw7p3f8trFk+cSnC0OZ2Nj4/zvVQ+vWj08lS2nIbDZaPx+u0PyqwPVrUSd3+7tZ7NeF+mocG515eLoRIaz1ZDh/LPqAVapNwfNpkRHhrNxg9aBh7tULSr4/2GqXc921GZZK9YO5NlLenx9ejWcmxN0wlqp1vZciY9X3qa0y+OllnM31fmbXzKzHyD3cI9OMxWd7R79s8aOa7VQaOYdtteyZjXeZs0r6fKlCqepwLlREdllM11M1GkdZnjkqdsMDvu7y1jVWsXuXjRBAp3GXUnnH372hH6oDmGiNeGH1mLqh8Vme9lRyJoUopP2VoRTL4Fzs9bIrgpnAWJNci1tV4LD6MgtUp0tt5w7oLv/+EnT+DlqFeFkvrarNuNwtD3uZqKeXgPn/ObDWdBZc5RmAhxmXYXezgpudUfSxv8BnEUkaivN9pTjtULQeXoNnBtmOV4pHIc5Fl/rpTDaymVFy3l7oLhVc12Gc7MCcjkcFoCFjKXCgWMloYFepXAEPE3Fcq5I5cXc933yyhZg19+i7NwSOMx0uGmocMDvasVNxHEBjmI56iLQ7SZ9uN1gavnWbLHsdgZj37em/eJo3XhMfN9PJoVEGUYWDM/twflRMY86/Znxzrc60eKUK6zSWt1p2mtvrly0BI7WllcyChxHzWYLvT65As76+rq4fbDn3VniE4uOdl8PDF3XTX8fTuybBI4Mf6T0PqfMApOYhmH6U75/8ebxiARmEGrezDd16MjqylfakfnOTHQCVybRoD+YvMv5hSP6JFivVkemugwO8ytXOuRw2rWyVY6mPbkCzjrA4RtP+937wKQQLNcdv7dIkAKx+lrY8ekBnNGJRMeeWSTphmEYJZSAGWSGtf+HRQAJcft0imZ6pW4NxEtDnZhxy/HaY9rQMAmh7TIrnVhEj2ivcYfAA5GolmerDFoOgC0CHabWHt2LlXr2cAEnp9NYlyV4tpsORzdmVhKFLvUvGHgSEWsa9/tRB+brC/nR65jmiDmy3YN5kAUdb9JhljbzyXQS9ToBHBiCz4e+YS4az6BbgxB/smAzJeaYeZgTwXAkOsvgOCVwFvvPdPu1Wx7cXhxIdBQ4d+RilxPBUIOYdWV36BSNYMruacM0jDFv2zGNTj7hCdDRs7DhDBKgE7CY5ezDJAmfpJMYxnTxd5teZozDQTaxETW03D26cKEleMS3wVkULNK/tsuKOg/liFyX4VwoycqmcyK5A7gWnXHuSc6YnjRz+6SPlQiukp7s5YddcLSJOEneERyS/bwfaMlPWboZ8V6VB7IUjlbmVh5VCyodxcLGQkeKX8lw1BdXNn3iFo+sdMbCnPp0iiTLHx6AEz0FfMfMM84A2vLhgCEZuWlTiwzycNmmF/oZcofakSlaShrp+A/fAie/g90u27mnentwBZyPSmMFTkzoc+MJEgbaF05NxUvBB7k9KHB61AL8DCV4Ej8HlHM4lL+RiPFhJlngNW61LFtle9NiPVBJ5o2rvEqFQ6dodBzxZD59ysKciZdCYOG/KHDAd3ICni5YoOaB5WT3oCyMjtjrnEh+tQyOXROKYEU4iyBU3F0Nm5JfbWwyLpugO+rrYAVOPxDhOBRIHlZ9KcRQheBnuS31ZTgxhWPl4Rp8J8rnawk8OoYUYphfCba0bJ3DoOXNCnBY0aKkGvjwZBmc9cKLGQXOXIIDQ88sxy7AcegvvLECByJyDidFkPOgLUmc9ZGocCBaGUluEsvgyKW/EjitWnnUOZIs5+4m10XhX4h8NRzP1xW30qyvhjMxheA1oyvhbPJwe9mtUpAczjK3UspdRTjOEjiZ6TA4dzib9U+FptfDWWRvsBw5IGum+IsScyAg8X7TJULCDkNi5EtrZjlSQE4TZiJvmopwbKVeU4SjLctXw0XCSuGsX2U4ZXDGpXAg5hi6tLC6KiDLcLRuenXXtb0B3V4J+1lIeaaUVMbGVwTkdNctrACWwcltS+D/phTOxZ+Fm3wDHJhGIK2rfHEVfDUcLab7UYMYieH7MzFKQuYm0i4MsiKPbeVwVMMpgcPSGXuYjtvyWvyux7zktZPDuVPyJtg2dDVbLYETyQsQtl4h+aVAg/DhqXA0t2cYge93InntAUwlbwVHIzzSlrx90Fgqkl5dKW8fNLlw6g53XUfLbzw8y+ic5XAuyv6tp2fKcKRFoCPCCX1YrQgjom1NvpougRNIHOxOMi/uBj1TXhFrIbWwhB+WwkmdSirXFOHs8Uzuas4h/c/Jx36UwXn7MWNTWjz25Cc8KMLJA8TUlPMV9QhlYcMXemm2kpxwn/DVtKiespmi/QRCTHJrqpGk1Rq1lHVY5mdZOG5pzq526Gj8kmcnjM6rT5s7O9R6LoqZCgTLVWES8go5NfF8pLDo03kNi2YgEvGOoivhhJ2AmllZGcGGYgfJ3dWjkUlcMLBZ7wlXenRfWXgT3lZ2C7tiwKZw2u2WpgmGDPm8Xj99+SfA2dncKf+6Io2j/JGmm+K8k1C2lS5sNa2IDdRNjEBcE45MqUgxkQ/T2pCZ9KJ40A/lz0j6PkT6Hgud3tQkYgRqrbESTT+0HUdzHMeFIl8tlDE7WTPqO9DKg0ZruaHsUsuxXYDEdQy2c/qvDxcpm7LPSN1BLy3aGZMBAAn3Z2ntK5n06VCdeZTWaMxpnMWKOH3KnSh05xODBFHe0TwepR3pk7RM4w5m6aE5ihe2NPDT+5gmIYFlGZ3ZgE9vAFVEM4nmbhglJOjxrUN7b/H5RFqqgS8t0nJNKFdq+FcWa7wR5ZQ3sD3HpWYjf7kCdE4/fE7hlH5ia7wPSCrr/Qg8DMrDhJjE+oPaUusvn50M/L8yW2qPAyj0BpbvB2IJ3begOkpFfHDKxM8Oraxw0/MZPSbaRYc7Rji1eK9CPu6XfXnTdhXnbJW02tuV+Hktak8tpfhFPev08+XO5sXH8s+Pu1Hc3R8M9rtxRCOLE0dxHHe79A/ItzY7mZ7l45lPxqZl6aOutKWbTkezXm/Sm42m4Gqz8Wg2Y4e5U/bHdP4gg1EyxU1DGE0NalDTWMpvLlMYsq+6Dl3Xc0ryndIqdIsffzleyyv8+Pr+6eXl5/98+qGfukEN+zuuGtE1DuU+meo+OK8eDOTz39Xr/6Q3Ly4pnV980zLNFy99QF4XYpeyUatCXyicqsdAFb8j4uu6ks14FXIuL79UPQaa2AOxiK6xlXj1cLRVgANvGOQtlafWXKvRl8vqPzyGjbYMh+53A/W1eAVaAThpnV5GEZqr4FXaly+Vw0nrV3Jumpl+2Yv+X63hCsCJiVKc7xJ/sLT1L9QqwIFXM7o5zjzLnQXvV4LNSsDRWrC3NIg5omvkWRL4ySr41MrInsKOle3Kg6R7/QW3S2Gvo9Ntp94pfNmGAnlu6C7/lBKFQqFQKBQKhUKhUCgUCoVCoVAoFAqFQqFQKBQKhUKhUCgUCoVCoVAoFAqFQqF+rP4LUS1C6RU5WyEAAAAASUVORK5CYII=;" vertex="1" parent="rc2-wnnBQLkUg-n85xRE-29">
          <mxGeometry x="83" width="99.07" height="61.74" as="geometry" />
        </mxCell>
        <mxCell id="rc2-wnnBQLkUg-n85xRE-14" value="&amp;lt;db connection&amp;gt;&lt;br&gt;" style="text;html=1;strokeColor=none;fillColor=none;align=center;verticalAlign=middle;whiteSpace=wrap;rounded=0;" vertex="1" parent="rc2-wnnBQLkUg-n85xRE-29">
          <mxGeometry x="83" y="58" width="60" height="30" as="geometry" />
        </mxCell>
        <mxCell id="rc2-wnnBQLkUg-n85xRE-15" value="database &quot;test&quot;" style="text;html=1;strokeColor=none;fillColor=none;align=center;verticalAlign=middle;whiteSpace=wrap;rounded=0;" vertex="1" parent="rc2-wnnBQLkUg-n85xRE-29">
          <mxGeometry x="37" y="96" width="165" height="33" as="geometry" />
        </mxCell>
        <mxCell id="rc2-wnnBQLkUg-n85xRE-18" value="collection: users" style="text;html=1;strokeColor=none;fillColor=none;align=center;verticalAlign=middle;whiteSpace=wrap;rounded=0;" vertex="1" parent="rc2-wnnBQLkUg-n85xRE-29">
          <mxGeometry x="72" y="129" width="165" height="33" as="geometry" />
        </mxCell>
        <mxCell id="rc2-wnnBQLkUg-n85xRE-33" value="" style="endArrow=classic;startArrow=classic;html=1;rounded=0;exitX=1;exitY=0.5;exitDx=0;exitDy=0;entryX=0.002;entryY=0.453;entryDx=0;entryDy=0;entryPerimeter=0;" edge="1" parent="1" source="rc2-wnnBQLkUg-n85xRE-9" target="rc2-wnnBQLkUg-n85xRE-31">
          <mxGeometry width="50" height="50" relative="1" as="geometry">
            <mxPoint x="535" y="423" as="sourcePoint" />
            <mxPoint x="585" y="373" as="targetPoint" />
          </mxGeometry>
        </mxCell>
        <mxCell id="rc2-wnnBQLkUg-n85xRE-34" value="" style="endArrow=classic;startArrow=classic;html=1;rounded=0;entryX=0.558;entryY=0.975;entryDx=0;entryDy=0;entryPerimeter=0;" edge="1" parent="1" target="rc2-wnnBQLkUg-n85xRE-9">
          <mxGeometry width="50" height="50" relative="1" as="geometry">
            <mxPoint x="472" y="468" as="sourcePoint" />
            <mxPoint x="585" y="373" as="targetPoint" />
          </mxGeometry>
        </mxCell>
        <mxCell id="rc2-wnnBQLkUg-n85xRE-40" value="" style="shape=image;verticalLabelPosition=bottom;labelBackgroundColor=default;verticalAlign=top;aspect=fixed;imageAspect=0;image=data:image/png,iVBORw0KGgoAAAANSUhEUgAABIAAAADkCAYAAADggl8FAAAKM2lDQ1BJQ0MgUHJvZmlsZQAASImVlgdUFFcXx+/M9kbbBQEpS2+CdBaQunRQOgiisuzSYcGl2LATjGAsiIiADY00BUuoFhQLFoKiAvYsEgSUGCyIirrfIIkmXz3fPefN/c2d9+67d96cM38A2hFeenoKKgOQKswUBXm6sudHRLJJg0AGFWCAMlB5/Ix0l4AAP8DsT/93e9sLyJS/bTyV61+f/1eTE8Rm8AGQKIzTBBn8VIw7MXbjp4syAaYqA62lmelTbIkxS4QViLHXFMdP89RaVsw0p3+ZExLExTgXgEzn8UTxANRtWJydzY/H8lCPYWwqFCQKMRZj7MhP4AkAaGyMZ6Wmpk3xVJ/62HwsHw1bA5yYv+SM/1v+mK/5ebz4rzzd1xeT56alpInYflw3NpeXkhgj4mXGCv7P9/Q/LTUl68/9pk6DHisMDZ7qARsqwIU0SMGGCNjgh925YZ4LPCyWCDFYlAeZEAuCzNhlU70CNy19uSgxPiGT7YKdaCzbW8g3mcU2NzU3A5j6Pqa3eR34ZSdEofNbbMMvAA5tEonk1LeYTxvAcRvsvbR8i+lzAGRpAFda+Fmi7OkYfupCACpIAwuUQA20sOqNwRyswR6cwR18wB9CIAIWAR8SIBWreynkwDrIgwLYBjuhFPbBQaiCo3ACmuA0nIfLcB1uQg88ADEMwnMYg7cwiSAICWEgTEQJUUd0ECPEHOEgjog74ocEIRFINBKPCJEsJAfZgBQghUgpcgCpRo4jLch55CrSjdxD+pER5BXyAcWhdJSFqqK66GyUg7qgvmgIuhCNR5egK9BcdAtaglagR9BG9Dx6He1BxehzdBwHOBpOAaeBM8ZxcFycPy4SF4cT4Vbj8nHFuApcHa4V14G7jRPjRnHv8UQ8E8/GG+Pt8V74UDwfvwS/Gr8ZX4qvwjfiL+Jv4/vxY/jPBAZBhWBEsCN4E+YT4glLCXmEYsJhQgPhEqGHMEh4SyQSFYh6RBuiFzGCmERcSdxM3EOsJ54jdhMHiOMkEkmJZERyIPmTeKRMUh5pN+kIqY10izRIekemkdXJ5mQPciRZSF5PLibXkM+Sb5GHyJMUGYoOxY7iTxFQllO2Ug5RWik3KIOUSaosVY/qQA2hJlHXUUuoddRL1IfU1zQaTZNmSwukJdLW0kpox2hXaP2093Q5uiGdS4+iZ9G30Cvp5+j36K8ZDIYuw5kRychkbGFUMy4wHjPeSTGlTKS8pQRSa6TKpBqlbkm9kKZI60i7SC+SXiFdLH1S+ob0qAxFRleGK8OTWS1TJtMi0yczLsuUNZP1l02V3SxbI3tVdliOJKcr5y4nkMuVOyh3QW6AiWNqMblMPnMD8xDzEnOQRWTpsbxZSawC1lFWF2tMXk7eUj5Mfpl8mfwZebECTkFXwVshRWGrwgmFXoUPM1RnuMyInbFpRt2MWzMmFGcqOivGKuYr1iv2KH5QYiu5KyUrbVdqUnqkjFc2VA5UXqq8V/mS8uhM1kz7mfyZ+TNPzLyvgqoYqgSprFQ5qNKpMq6qpuqpmq66W/WC6qiagpqzWpJakdpZtRF1prqjeqJ6kXqb+jO2PNuFncIuYV9kj2moaHhpZGkc0OjSmNTU0wzVXK9Zr/lIi6rF0YrTKtJq1xrTVteeq52jXat9X4eiw9FJ0Nml06EzoaunG667UbdJd1hPUc9bb4Verd5DfYa+k/4S/Qr9OwZEA45BssEeg5uGqKGVYYJhmeENI9TI2ijRaI9R9yzCLNtZwlkVs/qM6cYuxtnGtcb9JgomfibrTZpMXszWnh05e/vsjtmfTa1MU0wPmT4wkzPzMVtv1mr2ytzQnG9eZn7HgmHhYbHGotnipaWRZazlXsu7VkyruVYbrdqtPlnbWIus66xHbLRtom3Kbfo4LE4AZzPnii3B1tV2je1p2/d21naZdifsfrc3tk+2r7EfnqM3J3bOoTkDDpoOPIcDDmJHtmO0435HsZOGE8+pwumJs5azwPmw85CLgUuSyxGXF66mriLXBtcJrh13FfecG87N0y3frctdzj3UvdT9sYemR7xHrceYp5XnSs9zXgQvX6/tXn3eqt5872rvMR8bn1U+F33pvsG+pb5P/Az9RH6tc9G5PnN3zH04T2eecF6TP/h7++/wfxSgF7Ak4FQgMTAgsCzwaZBZUE5QRzAzeHFwTfDbENeQrSEPQvVDs0Lbw6TDosKqwybC3cILw8XzZ89fNf96hHJEYkRzJCkyLPJw5PgC9wU7FwxGWUXlRfUu1Fu4bOHVRcqLUhadWSy9mLf4ZDQhOjy6Jvojz59XwRuP8Y4pjxnjc/m7+M8FzoIiwUisQ2xh7FCcQ1xh3HC8Q/yO+JEEp4TihNFEbmJp4sskr6R9SRPJ/smVyZKU8JT6VHJqdGqLUE6YLLyYppa2LK073Sg9L128xG7JziVjIl/R4QwkY2FGcyYL+xF3ZulnfZfVn+2YXZb9bmnY0pPLZJcJl3UuN1y+afnQCo8VP67Er+SvbM/RyFmX07/KZdWB1cjqmNXta7TW5K4ZXOu5tmoddV3yup/Xm64vXP9mQ/iG1lzV3LW5A995flebJ5UnyuvbaL9x3/f47xO/79pksWn3ps/5gvxrBaYFxQUfN/M3X/vB7IeSHyRb4rZ0bbXeuncbcZtwW+92p+1VhbKFKwoHdszd0VjELsoverNz8c6rxZbF+3ZRd2XtEpf4lTTv1t69bffH0oTSnjLXsvpylfJN5RN7BHtu7XXeW7dPdV/Bvg/7E/ffPeB5oLFCt6L4IPFg9sGnh8IOdfzI+bH6sPLhgsOfKoWV4qqgqovVNtXVNSo1W2vR2qzakSNRR24edTvaXGdcd6Beob7gGBzLOvbsePTx3hO+J9pPck7W/aTzU3kDsyG/EWlc3jjWlNAkbo5o7m7xaWlvtW9tOGVyqvK0xumyM/Jntp6lns09K2lb0TZ+Lv3c6Pn48wPti9sfXJh/4c7FwItdl3wvXbnscflCh0tH2xWHK6ev2l1tuca51nTd+npjp1Vnw89WPzd0WXc13rC50XzT9mZr95zus7ecbp2/7Xb78h3vO9d75vV094b23u2L6hPfFdwdvpdy7+X97PuTD9Y+JDzMfyTzqPixyuOKXwx+qRdbi8/0u/V3Pgl+8mCAP/D814xfPw7mPmU8LR5SH6oeNh8+PeIxcvPZgmeDz9OfT47m/Sb7W/kL/Rc//e78e+fY/LHBl6KXklebXyu9rnxj+aZ9PGD88dvUt5MT+e+U3lW957zv+BD+YWhy6UfSx5JPBp9aP/t+fihJlUjSeSLeFymAwwYaFwfwqhKAEQHAvInphwXT+u0PjYP8Re38B57WeF/MGqCOBRA4iqmbPoBjhwB0sfzSmHYMYACE2AJqYfF1/GEZcRbm07norpg0eSyRvNYFIO0A+LRNIpmskEg+HcSKfQhwTjitG6eMiGnW/e6fYlJj/p1Om9aUf+nxnz18reBv/h+74czy3ywgRAAAAJZlWElmTU0AKgAAAAgABQESAAMAAAABAAEAAAEaAAUAAAABAAAASgEbAAUAAAABAAAAUgEoAAMAAAABAAIAAIdpAAQAAAABAAAAWgAAAAAAAACQAAAAAQAAAJAAAAABAAOShgAHAAAAEgAAAISgAgAEAAAAAQAABICgAwAEAAAAAQAAAOQAAAAAQVNDSUkAAABTY3JlZW5zaG90Ta/2pQAAAAlwSFlzAAAWJQAAFiUBSVIk8AAAAtxpVFh0WE1MOmNvbS5hZG9iZS54bXAAAAAAADx4OnhtcG1ldGEgeG1sbnM6eD0iYWRvYmU6bnM6bWV0YS8iIHg6eG1wdGs9IlhNUCBDb3JlIDYuMC4wIj4KICAgPHJkZjpSREYgeG1sbnM6cmRmPSJodHRwOi8vd3d3LnczLm9yZy8xOTk5LzAyLzIyLXJkZi1zeW50YXgtbnMjIj4KICAgICAgPHJkZjpEZXNjcmlwdGlvbiByZGY6YWJvdXQ9IiIKICAgICAgICAgICAgeG1sbnM6ZXhpZj0iaHR0cDovL25zLmFkb2JlLmNvbS9leGlmLzEuMC8iCiAgICAgICAgICAgIHhtbG5zOnRpZmY9Imh0dHA6Ly9ucy5hZG9iZS5jb20vdGlmZi8xLjAvIj4KICAgICAgICAgPGV4aWY6VXNlckNvbW1lbnQ+U2NyZWVuc2hvdDwvZXhpZjpVc2VyQ29tbWVudD4KICAgICAgICAgPGV4aWY6UGl4ZWxYRGltZW5zaW9uPjExNTI8L2V4aWY6UGl4ZWxYRGltZW5zaW9uPgogICAgICAgICA8ZXhpZjpQaXhlbFlEaW1lbnNpb24+MjI4PC9leGlmOlBpeGVsWURpbWVuc2lvbj4KICAgICAgICAgPHRpZmY6UmVzb2x1dGlvblVuaXQ+MjwvdGlmZjpSZXNvbHV0aW9uVW5pdD4KICAgICAgICAgPHRpZmY6WFJlc29sdXRpb24+MTQ0LzE8L3RpZmY6WFJlc29sdXRpb24+CiAgICAgICAgIDx0aWZmOllSZXNvbHV0aW9uPjE0NC8xPC90aWZmOllSZXNvbHV0aW9uPgogICAgICAgICA8dGlmZjpPcmllbnRhdGlvbj4xPC90aWZmOk9yaWVudGF0aW9uPgogICAgICA8L3JkZjpEZXNjcmlwdGlvbj4KICAgPC9yZGY6UkRGPgo8L3g6eG1wbWV0YT4KRJUZmwAAMhxJREFUeAHt3WewZEX9P+BZXLOLOeecMYsKyCqI6A8pUEShzKgvtEqltMpXWOVLS8v0V1QsBROKqKiAoqCYA6ioGDDnrLi6Zgn//UzZQ99z5947c/veSft01e6k0+f0PGdO39Pf091ny63+7/9d3pMIECBAgAABAgQIECBAgAABAgQWVmCPhf1mvhgBAgQIECBAgAABAgQIECBAgEBfQADID4EAAQIECBAgQIAAAQIECBAgsOACAkALvoN9PQIECBAgQIAAAQIECBAgQICAAJDfAAECBAgQIECAAAECBAgQIEBgwQUEgBZ8B/t6BAgQIECAAAECBAgQIECAAAEBIL8BAgQIECBAgAABAgQIECBAgMCCCwgALfgO9vUIECBAgAABAgQIECBAgAABAlsu35UwECBAgAABAgQIECBAgAABAgQILK6AHkCLu299MwIECBAgQIAAAQIECBAgQIBAX0AAyA+BAAECBAgQIECAAAECBAgQILDgAgJAC76DfT0CBAgQIECAAAECBAgQIECAgACQ3wABAgQIECBAgAABAgQIECBAYMEFBIAWfAf7egQIECBAgAABAgQIECBAgAABASC/AQIECBAgQIAAAQIECBAgQIDAggsIAC34Dvb1CBAgQIAAAQIECBAgQIAAAQICQH4DBAgQIECAAAECBAgQIECAAIEFFxAAWvAd7OsRIECAAAECBAgQIECAAAECBASA/AYIECBAgAABAgQIECBAgAABAgsuIAC04DvY1yNAgAABAgQIECBAgAABAgQICAD5DRAgQIAAAQIECBAgQIAAAQIEFlxAAGjBd7CvR4AAAQIECBAgQIAAAQIECBAQAPIbIECAAAECBAgQIECAAAECBAgsuIAA0ILvYF+PAAECBAgQIECAAAECBAgQICAA5DdAgAABAgQIECBAgAABAgQIEFhwAQGgBd/Bvh4BAgQIECBAgAABAgQIECBAQADIb4AAAQIECBAgQIAAAQIECBAgsOACAkALvoN9PQIECBAgQIAAAQIECBAgQICAAJDfAAECBAgQIECAAAECBAgQIEBgwQUEgBZ8B/t6BAgQIECAAAECBAgQIECAAAEBIL8BAgQIECBAgAABAgQIECBAgMCCCwgALfgO9vUIECBAgAABAgQIECBAgAABAgJAfgMECBAgQIAAAQIECBAgQIAAgQUXEABa8B3s6xEgQIAAAQIECBAgQIAAAQIEBID8BggQIECAAAECBAgQIECAAAECCy4gALTgO9jXI0CAAAECBAgQIECAAAECBAgIAPkNECBAgAABAgQIECBAgAABAgQWXEAAaMF3sK9HgAABAgQIECBAgAABAgQIEBAA8hsgQIAAAQIECBAgQIAAAQIECCy4gADQgu9gX48AAQIECBAgQIAAAQIECBAgIADkN0CAAAECBAgQIECAAAECBAgQWHABAaAF38G+HgECBAgQIECAAAECBAgQIEBAAMhvgAABAgQIECBAgAABAgQIECCw4AICQAu+g309AgQIECBAgAABAgQIECBAgIAAkN8AAQIECBAgQIAAAQIECBAgQGDBBQSAFnwH+3oECBAgQIAAAQIECBAgQIAAAQEgvwECBAgQIECAAAECBAgQIECAwIILCAAt+A729QgQIECAAAECBAgQIECAAAECAkB+AwQIECBAgAABAgQIECBAgACBBRcQAFrwHezrESBAgAABAgQIECBAgAABAgQEgPwGCBAgQIAAAQIECBAgQIAAAQILLiAAtOA72NcjQIAAAQIECBAgQIAAAQIECAgA+Q0QIECAAAECBAgQIECAAAECBBZcQABowXewr0eAAAECBAgQIECAAAECBAgQEADyGyBAgAABAgQIECBAgAABAgQILLiAANCC72BfjwABAgQIECBAgAABAgQIECCwFQEBAgQIECBAgAABApsrcOmllw42sMcee/S2bNkyeO0JAQIECBCYhIAA0CSUbYMAAQIENlzgr3/9a++3v/1t7y9/+Uvvsssu6930pjft3eQmN+ld5SpXWXNbl1xyyZrL1Ats3erPZe3hOYHNEvjnP//Z+9WvftU/rvP8Wte6Vu/6179+75a3vOVmbXIi6/3+97/fe/e73z3Y1uMe97jePe5xj8FrTwjMu8Dll1/eq4Oc+T6j/u1MvuQvKQHS/Jt0+vvf/977zW9+0/vDH/7Qu/a1r90/p7je9a436WLYHoFNFXBGu6m8Vr4RAl/5yld6+ZeTvwMOOKB3tatdbSNWax0ECMypQBqHn/3sZ3tpUNUnjPk6uaKexuJ+++3X22uvvYZ+w3/961+9l73sZUM/G/bmnnvu2Tv22GOHfeQ9AgQ2SODiiy/ufeYzn+l9+9vf7g0L0G7btq23ffv23n3ve98N2uLS1fz3v/8d1CdpeI7acF26Fq8I7L4C3/ve93qnnHLKEoBnPetZvZvd7GZL3uu++M9//tN7xSte0csxWFL+hj/84Q8vLzf98cILL+ydc845vVxY6qZcVMr5xMEHH9y70pWu1P3Y6yECuShX1+NXvvKV9Xgc4jSttwSApiU/g9tdb/S9JeK/FkNOCM8888z+Yr/73e/60fh99913rWw+J0BgQQW+9rWv9euEnFwMS6mP/vjHP/ZOO+203i9+8QsnbMOQvEdgxgR+/OMf90499dRegrMrpZ07d/ZOP/30/pX5gw46aMMbE69+9at7//jHP/qbzwWnZzzjGSsVxfsECIwocMEFF6wZAPrOd76zJPgz4qo3ZLGcM5x99tm9L37xiyuuLwGqXIhOz6AnPOEJvQSjpdUFvvrVr/Y+8pGPDBZ68pOf3Lvd7W43eO3JdAUEgKbrP1Nbf/Ob39xLkKWkO97xjr2jjz66vFzx8dOf/nQv/+p03HHHbUjXzXT/rlM5Oavf85wAgd1D4Fvf+la/Adj9thkikl46OTmrewTlhC3duJ/2tKd1s3hNgMCMCPz+97/vnXzyycuGjlz1qlft3ehGN+rl83//+9+D0n7pS1/q/elPf+odddRRGx4EGmzEEwIENkQgf7cf+chHrtqjLkGiaaVPfOITS4I/6f2XAHCGfSXo/Mtf/nIQmE7v4w984AO9pz71qdMqru0S2BABAaANYVzMlfzwhz/sV35rRbq/8Y1vbBrAzW9+89797ne/3te//vX+ONwHPvCBm7YtKyZAYHYF/va3vy25mpSSJki9//7791JPJCVgnHrrjDPO6OWKXdLPfvaz/r9b3/rW/dfD/stVqSOOOGLYR/33TNS6Io0PCDQJJGD7wQ9+cEnw54Y3vGG/595tbnOb/oWkLHPRRRf1lyvH9Q9+8INeGo2jDAdL/s0+htMjcbPmK9nMdTftPJkJjCCQXn05flea7+rPf/5z7+c///kIa9r4RTJE6bzzzhusOFNMpKdKPWQt5xXve9/7eumlmPTTn/60P0wsF51WS+ViVGvds1b9tdbnw8rYUrZJ1Ect5Rv2fb23XEAAaLmJd/4nkAPwm9/8Zm+fffZZ0eQnP/lJb8eOHSt+vhEfHHLIIf2TQePxN0LTOgjMp0B689Q9AjPPT4I29YTPV7/61Xv3vOc9++POP/zhDw++aE7wVgsApeGWvBIBApMVSKMqPfdKyt/5xz/+8b0EgUpKA+qud71rfzLot771reXtXnoCDQsApcdQhnOk91/+ZXj7DW5wg96Nb3zj/jwet7/97QfryGdvf/vb+6/r4WdZx4knnth//053utOy86DURZmHrEwWm97J173udfvbuO1tb9t7wAMeMNjGuE/SIE6dlflUMh9JynjNa16zH+jOBbGUZ6WUnlLJm3mUcm6WfLe4xS36c6lkQtt3vOMdg3k5bnWrW/XnVVxpXd4nsFECuYi7UgAon62Vzj333H7gpSyX+UDz++2mBGrSaycp5wYZxbBaACbTTNTzDt35zndeEvzJenJu8OhHP7p30kkn5WU/5ULTsLonPRNTLyVAnWM3285F9Kx377337vcqKusoj/V3y7lIehdl+Pr555/fDzol6J2bWzziEY8YTISfm1+k51J6JyWIlWM823jQgx5UVrvscT1lKyv57ne/28swvYwSyXrSOzP1acqVNmJ6YZeUc7XMp1T2Q3n/Yx/72GAO1yOPPLJfN5XP8rie8g2zy9yQabumfRrPF7zgBeZtqqH/91wAaAiKt64QSMW8WgBolIr7irUtfTZOFHnc4M84615aKq8IEJhFgXQjr1MaiXXwp/7sPve5T38eoDSkknISlkaUyRtrJc8JTF8ggYo6HXjggUuCP/VnGZaRf2kcJSW4k6BNfWOIBGUyJD3He53ScMm/NEzSeCznNbnQNaz3QQIp5f0Em+uUxt2HPvShXu4WVKc0JvMvjaX0EjjssMN6mfh0nJTvlMBTHexO/mwrDZv8i1Epf73unPfkLmPp9VhSvkcp0zHHHNO3Kw1eQe+i5HGzBRLoTUCk22smx98oowgSwM0E8SXlGOsGgLL+uj65+93vvmrwJ+vq9trLHUWHpdQBL3zhC4d9NHgv9UuO3Xq4ar5f1pmgbOqepz/96cvqtxzzpa7JOUqO13e9611L1pM6L+tOcCh12zvf+c4lw91T3+Rfekqnfuim9ZYtwaUEbhLUqVPqp7LNfK/c0TCB76QEnsv3qfMkqF7SsPp5I+wSkM8k5KkLS8o+kJYLCAAtN/FOJZDJVBNhTnS5mxKVTiU8asoB+eUvf7kflU2Fl0oiUeNEkXP75sz4323QpeLMeNuS0rC7973vXV4OHtdzxSx50vW8pFxZy5CSXDn80Y9+1D+53L59e+8hD3lIWcQjAQJTEEg9kKtDJZV6o7we9pirZRIBArMtkKu0dbrDHe5Qv1z2PFeO08gpqb44lHV98pOfLB/1G39pOCZIVK5GpzGQO/3kvKNsq/QQ6DYUyvvlMStO4y69DMpQtLyXnjU5d8l5TUm5Wp4eQcMaY2WZ7mMafumNVAd/0iBMgKsONqX82V63l1EmXK2DP/X6E/R573vfuywwVi/jOYGNFsjf4UywnGMrgZ6c59cpx2wJuuTcPoGO+m99WTa9WxJMLcHLnKN3U/e9lXoc1flSP1zjGtcYTP6eoEaOk5z3D2v31Hnr52lPJChTB38yf1mO3/TWyffPcZ0eeJlc/jrXuU6dffA87aTuesqHWUcmwU/d062ryjKf//zne3e7292W9GJqKVsmcq6DP+nxk8Bb9lHqmgSIUjfFLAGy1MepL/OvW8a6Hi3lzWNL+er1xC7lqIM/9eeeLxUQAFrq4dUQgfTyGVYRJtJeKuMh2Za8lcri/e9//5Ku3lkgJ3L5l4o7V7YyqWNdMWb9dSR52Azy671i1l13gj+pXOuglkmnl+xGLwhMRaA03srGc2K1kSl1yFlnnbXiKnNC1b3auOLCPiBAYGSB+thOYykTr66WEvythxvUy+YCU0kJvqShVZbN+UV6x5SUHgkJAKXB8pKXvKT/9stf/vJBQ3Clu4Bl3qES/EneJz3pSYPhpWnIvvGNbxxMGFvmDCnbXOvxPe95z5Lg1sMe9rD+kI4Ee3IelPKXYWoJ9mSekjL/WT5PY62k9GzIxLsZOpdGWnpQ1sGxspxHApspkCBMhunkN5i2RDcAVI8iKAGgYeXJMZAgUOkJnL/Z3R5FGZZVUoYo5Zx+lJS/73WQI22A/CvDLlMXZJnV6qb62E2g6mm7bjxR5hFK++ctb3lLPwCU+i69B1eaRDpBkwQwUnflwniCLAk4l+M+68qxnd6FObYTfEm7pQ6k56J92Xa+f0vZ6vZQ2oEpVwnkpM45adewuJQ55cuQ1fS6Sg/L/MsQtvouYKkrh7XhWspX79+UIx0Lsq9ik+BefPJ3RVouIAC03MQ7uwQyVjVXsFJZpcI9+OCDl83gX8/an4M941FXSpmPox7nn67HCfSkW2KJ1qZ7YCq6Zz7zmSutZtn7rVfM6hXm9tKJREsECMyWQH3FPyUbFgBKXVI3ALvfIGPjh+XLcmm4rZY3J34CQF1Rrwm0CaTRUA8FyDCL0rhYz5oPP/zwwVXnBGfyr6TMm5N5hUovnZV6ypTlV3pMT+HSCzkNsTRMS0pPoMxBloZPUq78J1hUL1OW7T7m7kKlbPkswamHPvShg8VS/2QekrpHdOa5KAGg5K9Tzsnqm2ak4Z3eCekhIBGYlEB6ryVwkwvGOV9PD58EVJLyeywBhgRsV5unL8vn2CoBoLzOheOMCkhK478OuGabozb8H/WoR/UDv2nz1CnBgzLsMu2b9H7J8X//+9+/XqzftqmHN6XXXx2ASb2WYGwZcZBjNe2e7vCzstJDDz10YJT5ynIc18Pf8vpe97pXf/HULSn/8ccfX7L3fv3rXw+ep93VUraMAimp65k6qQTPyzLjPraWr7u99IpMPSmtLXDFX8e1l7XEbiSQimmvvfbqnyyUSjqVb0mlIs/r2+y6U0fda6csUx5zElT34kmX0DKsKutO9DfdLpNSceWksB7T3/9ghf/qyHEWGeeKWXeVCf4k4p+y5aQqJ4/jjt/vrtNrAgTaBeqG3Epry9XAOijdXS5XhVYKAHWX9ZoAgckLpBHXknLVv05ZXxpxOafIuUYdYMnr9aScE3TPC9JTuGwj5zslZfujBoDqc6TkT33VTbmqXQ+tqPPU202+EqSq15HGsgBQLeL5JATyuytz8+RvdAkA5b30DEoa9nvtli3BkLQNcqwlpcdPCQAlqFLez2ejDP/Kcklp72QOm6w/QdWVgsM5xs4888z+/IK5KF5Sd/mUI4GjOtWjCTL6IEGZBJS6Kcd392JTPSF+li9B35I3PV3qVEzzXmvZ0usnPXvKutLDMXVT9mGCXKO21forGPJfa/m6q+wG57qfe32FgADQFRaedQRSIZeThXTTrANAdbfNUgF3sg9epvJ68YtfPHhdVxg5YUvEtgSAcsKUKwSjdN1svWI2KND/nqRc6d64WjfPbh6vCRDYfIHuJKzp5jtuWq1nQU7Eul3T6/UPO1GrP/ecAIHxBfI3N1eVSy+gDG9Y7cr4KFtI3ZDefLmYlKvLow5TH2XdZZmsM3MF5lwl26kbd2WZcR+7vRy7jbqsL4HwXGwrPZXr4XN1ACgXsjKvSTfl3CbBq80w6W7LawJFIMN+cies/F4T9EmPlfwO6ws2pUdLyTPsMXVFgg/prZ+UHj9pM+Rvez3/T+qV+k5/w9bVfS9BoNzVK//SIzgTvefYTpA19VKdUr9kDrHS9qmPwyyXIW9rpQzTGnZekXJ0L3h1z12GfZ5lYtFNrWXbvmse1BiUeckSuCo9irLNBKvSNkyHgW5gvFuWYa9by1evM3Yu8tUiqz8XAFrdZ7f+NCcgif6moioTtaWLcyqZMmt/uh/mqlSJEA8DS6Xd7TqYq2+pUPJYKpOSd9Qrc/XVr+Qd94pZ2V55zAz2gj9FwyOB2RFIo6duKNZX8kspb7OrJ+Lznve88rJ/cpk7ApWULuYrpcwTMqz+WGl57xMgsDECaRiWgG6CP2lsda9411vK+UcJGOX9ujGURluGSNU9Aeq8G/E85ctEo93zltZ1198p61qpMVV/3zpPfUevnEOVhnFdrgR+6t4B9WeeE9gsgQQKEuD53Oc+1+8Rl6FWpW2RbebcO22LUVKCDSUAlOM8F4KzrjoAlDZJggHrTSlL3ZMkw6DOOOOMJb1pctG6BIDq47Bssxu0yfv1MVkCKmX5zXpsLVuCVE/bNZ9RzqUuuuiiJfVHvk968ORf2oRHH3302D2CWstXuw0zrz/3fKmAANBSD686AukFlABQDvQc4BmTnqh7hlskZcKvlU5UOqvqTwCXLpupsMsJX3eZcV63XjHrbmtYNL67jNcECExeIH/YE5wtgZ80wnLCV1/lSz1UB3kyJ1BJaTTVn5X3PRIgMF2BHMP15MUJ4qwWAMpEyFmmpBe96EX9odsJHuVGE+UCUo73zPuVwHACvOkVkDtsdYcclPWM+phbIpfgT+qV3I498/UkSJ1tpJGb29CPm8pk1SVf6rjuOUnOwzL8vqQEz0oqE8bmdYI8qSu7V8PTIyrrkAhMWiBtiRwbSRlBUM8tM8rwr1LezBNUehPlvZwH5GJ12ikljTP8q+RZ7THrz7w8r3vd6wbHT7297rGbC1Gzcr6xEWVLPZIhcqlbU3+mDZd2YG2Q3pDpFZlpOMZJG1G+cbZn2SsE1h8ivWIdni2wQAI85YpTGfZVHvO1R6m4Mwb+1FNP7c98n+6fGxH8yba7keOVAlGl/MPy5L2SWq4YlHV4JEBgcwTSNbtOuaPNSkMZ0niq74qRBqWrQ7We5wRmQ6Db8y7HdT2cqS5lgrp18CdB4Qx3SkoDpAR/8jpzDWay1DReMhwqf99TL4yayp2+6uUTWKnrldRJ23cNkUgPhDRkcq4xzjbqdWdISZ2GBarS8KrPe+oATz3pbNaTuUoSFCspdeVHP/rR8tIjgYkKZBh3jpOk9J4pN13INBDpsTNqyt/xOsCTi8o5JktgM8d6ehSNmhKsfelLXzr4l2Ffw1LqmbqNkGBvSd1jN4HWWUkbWbbsq0ymnyDPMcccs+SOYPm+w+qs2mFYnbqR5au35fnaAnoArW20Wy+RSu4ud7lLf+b9jDvPUK90A0zKyVd3srJhWLm9Yj27frpN5qQvJy9Zf05qcmVu3NSNHI97xWzc7VmeAIHpCaQxl7qkNLByopZbqz72sY8dXOlOgycngxkGUgeHyqTzK5U+DbvSq3HYMjnx69Y3w5bzHgEC4wmksVYPB0mAIxeMEsBJ76Bc2EnjLpOqlrvolC1k/sCS6uBP3uteaErd0e01XPKWx/oiUoJNqWvq+cdST9QBmO42ci7Tnfy1rHutx3zXnA+V4Wspb86T0oMpKfVZ7qZap7ohXM+zkmUyRD4TtuZuSCl3zt3K3EH1OjwnMCmBMqIg2yt/n8cZRVDKmWFg6W2SlF4oZ511Vvmof8yMc7En6/rUpz41yJ/Aac4p6uM+Zc3tzOtjvwSzkjHHboZglmFd55xzTv+OZiU4nWVy8fvss88eBKoyXKob/MhyG51aypb6L70qS8o8P+lVWVImo06dVb53d96yuj5NntzxLfVRvX9aylfK4XF9AgJA63PbrXKl0i63XkzDKicTSaP0/sly9RW7VHjpSlmnuktz/f5az7uVZ6LP+WNSp9WumNXLeU6AwGwLJAiTW6mefPLJg4KmkfaGN7yhf4U/QzAyNKPUT2WhXLGqG0rl/foxVyRf9apX1W8teb7nnnv2jj322CXveUGAQLtAGgOHHXZYP1hRjt2cE5xyyin9HjXpvZfhIqXBWLaYi091AChDQ1JHlF4v6UmUIEjy5zygvkV0WUf3MQ2YTABbUoZ8ZBhWeihk+HsaOxlqVXoJJNhz0kkn9S+EpcwJspTvUNYx6mPKHofML5TvkKDX2972tn5wLENeMtSlvoKehmsaUyWlsfnEJz6xd+KJJw7KkGFgZdhslotXenB3Lcs6PBLYTIH8HU6wpj5GRm1H1OXKMZgATbkYVF+8Wetvfb2ePM+F7DoAnWM75xRpX+Sz3EUwPRJLkCN5EtjYe++987SfyrGbOivHbgKtb3rTm/qBoZyXpP6p20Gpu7rtl7KujX5sKVuMUw+VHpl5zDlXgtIJhuWOabVLtydXNyCU5dNjK66pq0qvqtR7s2i30fti1tZnCNis7ZEZLE+uLKUBlFROQHLSNsqs/clTX5nLFbj65COV63nnnZfFxk7lilnJmCtmaciVlO2sdsWsLOeRAIH5EMjdAY866qjBsI9S6tyFJydu9YllPkuj8DGPeUxZzCMBAjMokIbGU57ylGXHdY7nYXfySi/iLF/fXCLDE+pGWfKmt3ImL03wJ+cxaTiultLLsJvS6Kl7+uy7775LhoLkwlO2kSv86QWQq+TrTQnoHH744UuukKeHQ66cl3OvrDvLpdFUX0nP+xkGdsQRR/TnSMnrktIIzHfLravzXCIwDYHucK8c9+WW8OOWJwHQbkqgdJRRCd18OWbqciS4kfOJXPhOj+I6yJEJoofdLTgXmupjMne3SrA1vYvq4E/mBjryyCO7RdjU1y1ly0W3ckfBBIPyndIT8/TTT18y5Cv1S+rYOqU+qntK5bOcq6VOq3tTtZSv3p7n4wnoATSe1265dAn21HfUSbftEhRaCyXLljGxCficcMIJ/du8JzCUirF7G8C11lc+L5Ht9V4xK+vxSIDA/AjkZOE5z3lOv0t26o+6YVS+RYZrHXjggSMHqUs+jwQITEcgDbBnP/vZ/WBKrhQPO67TwNtvv/2W9PypS3vQQQf1h2qef/75g6BNgkSZq+eAAw7oZQLp1VLqlgSYM7wkvQnL7d3roQy5yp3hGxnOkWXSKEpKcDqNpQsvvHC1Taz5WXowpMw53yrnTSVTGmK58JbvslIgJ8GhTEqdRlZ6MyVPehvELqmUN8+7AaS8JxHYTIH0+CnHyKgXkYeVJ8dJPXQry2TI5Hp+0wnq5E5XWV8mpC/Hfb3d9P5LW+aQQw4ZBETqz/M8Qaly7JZeM2WZ5M/wqQc/+MG93D150mm9ZUtvn5xvZf6wBMNqm3zX9LDcf//9+1OFdL9T6qj09PnCF77QD2KnrZfAfPJ199N6y9fdptejC2zZ9cfALQFG91roJTNePN37klJJ5WSqpHS1THfokjJGto7AJ1JejxU97rjjBicoyZtu0sPG36eCyFW7Mp43689s86UbZ7p+v/71ry+b7W3fvr1f2Qze2PUk287QtNV+yjkpStS9PmnKyVu6epaUk6pc3ZMIEJgfgXS3zslWgsu5ophux6WxMz/fQkkJECgCCf4k+JEARq6+Z6hArpxnzolRU+qDzKeTIRhpcKwnleFk9XlDvZ6UM72Dso3NaNSlwRSDNJpSp8VgpbLku9bnWClTfQOMlDvre+UrXzn4Cjn3Sq8gicC8CeTv/mtf+9pBsRNQeO5zn7tk7p7Bh2M+Sd2R9kHaHwkOJYCax3FSOXZTh+S8pJ4PaJz1bMayLWVLACgu6e2Y77VSfbRSuVOXdeul7rIt5euuy+uVBfQAWtnGJ5VA6aqZO210u3FWiw19mryZMT7DsZI/FUBSIscJMqUyqANAQ1eyyputV8xWWbWPCBCYcYE0ivJPIkBgMQQSTMnwzZaUBldro2utxk3KWd+Jq6W8w/Im6DNqMDuNpuOPP36wmvQCytCWnK8lZUjLueeeO/g8T7KMRGDeBBJ0PeOMM5YUOxek09bYiJR6I7198m+9aZxjd73bWG++lrKlR+F6htmVsq4V/MlyLeUr2/G4toAeQGsbWWIDBRINT4+gVLBlXOlqq0835tzpp6QM69hnn33Ky2WPJXI8yhWzZZm9QYAAAQIECBCYQ4FMkF/PN5KvkAlXM9w+vRrqlLmKMt+QRGBeBHI34QR+6jl5UvYEatP7J791iQCB0QT0ABrNyVIbJJCKOj1/1koJ4KSbYcaO1mmtCL/Ica3lOQECBAgQILA7CGRo/sc//vHeBRdcMPi63bus5hwscxUNm/B6kMkTAjMokImDu8GfDHVMTzfBnxncYYo00wICQDO9e3bfwiXSf9pppy0ByCRqLV0Pl6zMCwIECBAgQIDAggjkHOnQQw/t5S5puTtZLqKlx3WGqmUek/zLZNsaywuyw3ezr5Hfd+b4y/wzuZCc55ngvQxz3M04fF0CTQICQE18Mk9KIBV8brE4yrCxSZXJdggQIECAAAECsySQIE99W+tZKpuyEFivQO60l38SAQLtAgJA7YbWsAkC6daZ261mSFeuVmW8eqL+EgECBAgQIECAAAECBAgQIDC+gEmgxzeTgwABAgQIECBAgAABAgQIECAwVwJ7zFVpFZYAAQIECBAgQIAAAQIECBAgQGBsAQGgsclkIECAAAECBAgQIECAAAECBAjMl4AA0HztL6UlQIAAAQIECBAgQIAAAQIECIwtIAA0NpkMBAgQIECAAAECBAgQIECAAIH5EhAAmq/9pbQECBAgQIAAAQIECBAgQIAAgbEFBIDGJpOBAAECBAgQIECAAAECBAgQIDBfAgJA87W/lJYAAQIECBAgQIAAAQIECBAgMLaAANDYZDIQIECAAAECBAgQIECAAAECBOZLQABovvaX0hIgQIAAAQIECBAgQIAAAQIExhYQABqbTAYCBAgQIECAAAECBAgQIECAwHwJCADN1/5SWgIECBAgQIAAAQIECBAgQIDA2AICQGOTyUCAAAECBAgQIECAAAECBAgQmC8BAaD52l9KS4AAAQIECBAgQIAAAQIECBAYW0AAaGwyGQgQIECAAAECBAgQIECAAAEC8yUgADRf+0tpCRAgQIAAAQIECBAgQIAAAQJjCwgAjU0mAwECBAgQIECAAAECBAgQIEBgvgQEgOZrfyktAQIECBAgQIAAAQIECBAgQGBsAQGgsclkIECAAAECBAgQIECAAAECBAjMl4AA0HztL6UlQIAAAQIECBAgQIAAAQIECIwtIAA0NpkMBAgQIECAAAECBAgQIECAAIH5EhAAmq/9pbQECBAgQIAAAQIECBAgQIAAgbEFBIDGJpOBAAECBAgQIECAAAECBAgQIDBfAgJA87W/lJYAAQIECBAgQIAAAQIECBAgMLaAANDYZDIQIECAAAECBAgQIECAAAECBOZLQABovvaX0hIgQIAAAQIECBAgQIAAAQIExhYQABqbTAYCBAgQIECAAAECBAgQIECAwHwJCADN1/5SWgIECBAgQIAAAQIECBAgQIDA2AICQGOTyUCAAAECBAgQIECAAAECBAgQmC8BAaD52l9KS4AAAQIECBAgQIAAAQIECBAYW0AAaGwyGQgQIECAAAECBAgQIECAAAEC8yUgADRf+0tpCRAgQIAAAQIECBAgQIAAAQJjCwgAjU0mAwECBAgQIECAAAECBAgQIEBgvgQEgOZrfyktAQIECBAgQIAAAQIECBAgQGBsAQGgsclkIECAAAECBAgQIECAAAECBAjMl4AA0HztL6UlQIAAAQIECBAgQIAAAQIECIwtIAA0NpkMBAgQIECAAAECBAgQIECAAIH5EhAAmq/9pbQECBAgQIAAAQIECBAgQIAAgbEFBIDGJpOBAAECBAgQIECAAAECBAgQIDBfAgJA87W/lJYAAQIECBAgQIAAAQIECBAgMLaAANDYZDIQIECAAAECBAgQIECAAAECBOZLYOuOHTsmUuLXvOY1E9mOjRAgsPsIPP/5z999vqxvSoAAAQIECBAgQIAAgQYBPYAa8GQlQIAAAQIECBAgQIAAAQIECMyDgADQPOwlZSRAgAABAgQIECBAgAABAgQINAgIADXgyUqAAAECBAgQIECAAAECBAgQmAeBLSeccMLl81BQZSRAgAABAgQIECBAgAABAgQIEFifgB5A63OTiwABAgQIECBAgAABAgQIECAwNwJbLr74Yj2A5mZ3KSgBAgQIECBAgAABAgQIECBAYHyBrR8449zeli1bxs8pBwECBAgQIECAAAECBAgQIECAwFwI/G8ImE5Ac7G3FJIAAQIECBAgQIAAAQIECBAgsA6BrR/58PvXkU0WAgQIECBAgAABAgQIECBAgACBeREwCfS87CnlJECAAAECBAgQIECAAAECBAisU2DLZZddtmz816TmBNq5c2e/2Nu2bVtn8Tc3m/K1+fLj1ybQltvvj1+bQFtuvz9+bQJtuf3++LUJtOX2++PXJtCW2++PX5tAW+55+P3pAdS2j+UmQIAAAQIECBAgQIAAAQIECMy8gADQzO8iBSRAgAABAgQIECBAgAABAgQItAkMDQBdfvmyUWFtW5GbAAECBAgQIECAAAECBAgQIEBgagJ7CPZMzd6GCRAgQIAAAQIECBAgQIAAAQITERjaA2giW7YRAgQIECBAgAABAgQIECBAgACBiQgIAE2E2UYIECBAgAABAgQIECBAgAABAtMTEACanr0tEyBAgAABAgQIECBAgAABAgQmItAPAJkHaCLWNkKAAAECBAgQIECAAAECBAgQmIrAij2ABIWmsj9slAABAgQIECBAgAABAgQIECCw4QIrBoA2fEtWSIAAAQIECBAgQIAAAQIECBAgMBUBAaCpsNsoAQIECBAgQIAAAQIECBAgQGByAgJAk7O2JQIECBAgQIAAAQIECBAgQIDAVAQEgKbCbqMECBAgQIAAAQIECBAgQIAAgckJCABNztqWCBAgQIAAAQIECBAgQIAAAQJTERAAmgq7jRIgQIAAAQIECBAgQIAAAQIEJicgADQ5a1siQIAAAQIECBAgQIAAAQIECExFQABoKuw2SoAAAQIECBAgQIAAAQIECBCYnIAA0OSsbYkAAQIECBAgQIAAAQIECBAgMBUBAaCpsNsoAQIECBAgQIAAAQIECBAgQGByAgJAk7O2JQIECBAgQIAAAQIECBAgQIDAVAQEgKbCbqMECBAgQIAAAQIECBAgQIAAgckJCABNztqWCBAgQIAAAQIECBAgQIAAAQJTERAAmgq7jRIgQIAAAQIECBAgQIAAAQIEJicgADQ5a1siQIAAAQIECBAgQIAAAQIECExFQABoKuw2SoAAAQIECBAgQIAAAQIECBCYnIAA0OSsbYkAAQIECBAgQIAAAQIECBAgMBUBAaCpsNsoAQIECBAgQIAAAQIECBAgQGByAgJAk7O2JQIECBAgQIAAAQIECBAgQIDAVAQEgKbCbqMECBAgQIAAAQIECBAgQIAAgckJCABNztqWCBAgQIAAAQIECBAgQIAAAQJTERAAmgq7jRIgQIAAAQIECBAgQIAAAQIEJicgADQ5a1siQIAAAQIECBAgQIAAAQIECExFYMuOHTsuz5a3bNmyrADD3lu2UMMbl1xyST/31q1bG9ayeVmVr82WH782gbbcfn/82gTacvv98WsTaMvt98evTaAtt98fvzaBttx+f/zaBNpyz8PvTw+gtn0sNwECBAgQIECAAAECBAgQIEBg5gW2XHrppVPrAbRz584+0LZt22YSSvnadgs/fm0Cbbn9/vi1CbTl9vvj1ybQltvvj1+bQFtuvz9+bQJtuf3++LUJtOWeh9+fHkBt+1huAgQIECBAgAABAgQIECBAgMDMCwgAzfwuUkACBAgQIECAAAECBAgQIECAQJuAAFCbn9wECBAgQIAAAQIECBAgQIAAgZkXEACa+V2kgAQIECBAgAABAgQIECBAgACBNgEBoDY/uQkQIECAAAECBAgQIECAAAECMy8gADTzu0gBCRAgQIAAAQIECBAgQIAAAQJtAgJAbX5yEyBAgAABAgQIECBAgAABAgRmXkAAaOZ3kQISIECAAAECBAgQIECAAAECBNoEBIDa/OQmQIAAAQIECBAgQIAAAQIECMy8gADQzO8iBSRAgAABAgQIECBAgAABAgQItAkIALX5yU2AAAECBAgQIECAAAECBAgQmHkBAaCZ30UKSIAAAQIECBAgQIAAAQIECBBoExAAavOTmwABAgQIECBAgAABAgQIECAw8wICQDO/ixSQAAECBAgQIECAAAECBAgQINAmIADU5ic3AQIECBAgQIAAAQIECBAgQGDmBQSAZn4XKSABAgQIECBAgAABAgQIECBAoE1AAKjNT24CBAgQIECAAAECBAgQIECAwMwLCADN/C5SQAIECBAgQIAAAQIECBAgQIBAm4AAUJuf3AQIECBAgAABAgQIECBAgACBmRcQAJr5XaSABAgQIECAAAECBAgQIECAAIE2AQGgNj+5CRAgQIAAAQIECBAgQIAAAQIzLyAANPO7SAEJECBAgAABAgQIECBAgAABAm0CAkBtfnITIECAAAECBAgQIECAAAECBGZeQABo5neRAhIgQIAAAQIECBAgQIAAAQIE2gQEgNr85CZAgAABAgQIECBAgAABAgQIzLyAANDM7yIFJECAAAECBAgQIECAAAECBAi0CQgAtfnJTYAAAQIECBAgQIAAAQIECBCYeQEBoJnfRQpIgAABAgQIECBAgAABAgQIEGgTEABq85ObAAECBAgQIECAAAECBAgQIDDzAgJAM7+LFJAAAQIECBAgQIAAAQIECBAg0CYgANTmJzcBAgQIECBAgAABAgQIECBAYOYFBIBmfhcpIAECBAgQIECAAAECBAgQIECgTUAAqM1PbgIECBAgQIAAAQIECBAgQIDAzAsIAM38LlJAAgQIECBAgAABAgQIECBAgECbgABQm5/cBAgQIECAAAECBAgQIECAAIGZFxAAmvldpIAECBAgQIAAAQIECBAgQIAAgTYBAaA2P7kJECBAgAABAgQIECBAgAABAjMvsGXHjh2Xp5RbtmxZVthh7y1bqOGNSy65pJ9769atDWvZvKzK12bLj1+bQFtuvz9+bQJtuf3++LUJtOX2++PXJtCW2++PX5tAW26/P35tAm255+H3pwdQ2z6WmwABAgQIECBAgAABAgQIECAw8wJbLr300qn1ANq5c2cfaNu2bTMJpXxtu4UfvzaBttx+f/zaBNpy+/3xaxNoy+33x69NoC233x+/NoG23H5//NoE2nLPw+9PD6C2fSw3AQIECBAgQIAAAQIECBAgQGDmBQSAZn4XKSABAgQIECBAgAABAgQIECBAoE1AAKjNT24CBAgQIECAAAECBAgQIECAwMwLCADN/C5SQAIECBAgQIAAAQIECBAgQIBAm4AAUJuf3AQIECBAgAABAgQIECBAgACBmRcQAJr5XaSABAgQIECAAAECBAgQIECAAIE2AQGgNj+5CRAgQIAAAQIECBAgQIAAAQIzLyAANPO7SAEJECBAgAABAgQIECBAgAABAm0CAkBtfnITIECAAAECBAgQIECAAAECBGZeQABo5neRAhIgQIAAAQIECBAgQIAAAQIE2gQEgNr85CZAgAABAgQIECBAgAABAgQIzLyAANDM7yIFJECAAAECBAgQIECAAAECBAi0CQgAtfnJTYAAAQIECBAgQIAAAQIECBCYeQEBoJnfRQpIgAABAgQIECBAgAABAgQIEGgTEABq85ObAAECBAgQIECAAAECBAgQIDDzAgJAM7+LFJAAAQIECBAgQIAAAQIECBAg0CYgANTmJzcBAgQIECBAgAABAgQIECBAYOYF/j+Ru5j/WIb8mAAAAABJRU5ErkJggg==;" vertex="1" parent="1">
          <mxGeometry x="655" y="581" width="253.37" height="50.14" as="geometry" />
        </mxCell>
        <mxCell id="rc2-wnnBQLkUg-n85xRE-41" value="&lt;font style=&quot;font-size: 16px;&quot; face=&quot;Comic Sans MS&quot;&gt;Task 1: Synthesizing User accounts&lt;br&gt;&lt;/font&gt;Goal: connect auth record to app&amp;nbsp;user&lt;br&gt;&amp;nbsp;record" style="text;html=1;strokeColor=none;fillColor=none;align=center;verticalAlign=middle;whiteSpace=wrap;rounded=0;" vertex="1" parent="1">
          <mxGeometry x="14" y="-2" width="396" height="108" as="geometry" />
        </mxCell>
        <mxCell id="rc2-wnnBQLkUg-n85xRE-46" value="Refactor later" style="rhombus;whiteSpace=wrap;html=1;fillColor=#fff2cc;strokeColor=#d6b656;movable=1;resizable=1;rotatable=1;deletable=1;editable=1;locked=0;connectable=1;" vertex="1" parent="1">
          <mxGeometry x="655" y="90" width="80" height="80" as="geometry" />
        </mxCell>
        <mxCell id="rc2-wnnBQLkUg-n85xRE-47" value="Give users their own database maybe like &quot;accounts&quot;" style="text;html=1;strokeColor=none;fillColor=none;align=center;verticalAlign=middle;whiteSpace=wrap;rounded=0;movable=1;resizable=1;rotatable=1;deletable=1;editable=1;locked=0;connectable=1;" vertex="1" parent="1">
          <mxGeometry x="753" y="118" width="174" height="30" as="geometry" />
        </mxCell>
      </root>
    </mxGraphModel>
  </diagram>
</mxfile>
